<?xml version="1.0" encoding="utf-8"?>
<!-- Generator: Adobe Illustrator 25.4.1, SVG Export Plug-In . SVG Version: 6.00 Build 0)  -->
<svg version="1.1" id="Слой_1" xmlns="http://www.w3.org/2000/svg" xmlns:xlink="http://www.w3.org/1999/xlink" x="0px" y="0px"
	 viewBox="0 0 53.7 81" style="enable-background:new 0 0 53.7 81;" xml:space="preserve">
<style type="text/css">
	.st0{fill:#DF8844;}
	.st1{fill:#FFFFFF;}
</style>
<g>
	<rect x="0.8" class="st0" width="52.9" height="52.9"/>
	<path class="st1" d="M44.4,16.5c-1.7-2.9-4-5.1-7.1-6.6c-3.1-1.5-6.8-2.3-11.1-2.3H11.5v8.2h6.6v-3.1h7.6c3.2,0,5.9,0.5,8,1.6
		c2.2,1.1,3.8,2.7,4.9,4.8c1.1,2.1,1.6,4.7,1.6,7.7c0,3.1-0.6,5.7-1.7,7.8c-1.1,2.1-2.8,3.7-5,4.9c-2.2,1.1-5,1.7-8.3,1.7h-7.2v-4.3
		h-6.6v9.4h14.2c4.5,0,8.3-0.8,11.4-2.3c3.1-1.6,5.6-3.8,7.2-6.7c1.7-2.9,2.5-6.4,2.5-10.4C46.9,22.8,46,19.3,44.4,16.5z"/>
	<g>
		<g>
			<path class="st1" d="M19.2,23.7h-3.1c-0.1-0.4-0.2-0.8-0.4-1.1c-0.2-0.3-0.4-0.6-0.7-0.8s-0.6-0.4-1-0.5
				c-0.4-0.1-0.8-0.2-1.2-0.2c-0.8,0-1.4,0.2-2,0.6c-0.6,0.4-1,0.9-1.3,1.6s-0.5,1.6-0.5,2.6c0,1,0.2,1.9,0.5,2.6
				c0.3,0.7,0.8,1.2,1.3,1.6s1.2,0.5,2,0.5c0.4,0,0.8-0.1,1.2-0.2c0.4-0.1,0.7-0.3,1-0.5c0.3-0.2,0.5-0.5,0.7-0.8
				c0.2-0.3,0.3-0.7,0.4-1l3.1,0c-0.1,0.7-0.3,1.3-0.6,1.9c-0.3,0.6-0.8,1.2-1.3,1.7c-0.5,0.5-1.2,0.9-1.9,1.2
				c-0.7,0.3-1.6,0.4-2.5,0.4c-1.3,0-2.5-0.3-3.5-0.9s-1.8-1.5-2.4-2.6C6.3,28.8,6,27.5,6,25.9c0-1.6,0.3-3,0.9-4.1
				c0.6-1.1,1.4-2,2.5-2.6c1-0.6,2.2-0.9,3.5-0.9c0.9,0,1.6,0.1,2.4,0.4c0.7,0.2,1.4,0.6,1.9,1c0.6,0.5,1,1,1.4,1.7
				C18.9,22.1,19.1,22.8,19.2,23.7z"/>
		</g>
	</g>
	<g>
		<g>
			<path class="st0" d="M4.2,66.5c-0.8,0-1.5-0.2-2.1-0.6c-0.6-0.4-1-0.9-1.3-1.5c-0.3-0.7-0.5-1.4-0.5-2.2c0-0.9,0.2-1.6,0.5-2.3
				c0.3-0.7,0.8-1.2,1.4-1.5c0.6-0.4,1.3-0.6,2.1-0.6c0.6,0,1.2,0.1,1.7,0.4c0.5,0.2,0.9,0.6,1.2,1s0.5,0.9,0.5,1.5H6.1
				c-0.1-0.4-0.3-0.7-0.6-1s-0.7-0.4-1.2-0.4c-0.5,0-0.9,0.1-1.2,0.4c-0.3,0.2-0.6,0.6-0.8,1c-0.2,0.4-0.3,1-0.3,1.6
				c0,0.6,0.1,1.1,0.3,1.6c0.2,0.4,0.4,0.8,0.8,1s0.7,0.4,1.2,0.4c0.3,0,0.6-0.1,0.8-0.2c0.3-0.1,0.5-0.3,0.6-0.5S6,64,6.1,63.7h1.6
				c-0.1,0.5-0.2,1-0.5,1.5c-0.3,0.4-0.7,0.8-1.2,1C5.4,66.4,4.9,66.5,4.2,66.5z"/>
			<path class="st0" d="M9.4,66.4V58h6.8v8.4h-1.6v-7H11v7H9.4z"/>
			<path class="st0" d="M22.1,66.5c-0.8,0-1.5-0.2-2.1-0.5s-1.1-0.9-1.4-1.5s-0.5-1.4-0.5-2.3c0-0.9,0.2-1.6,0.5-2.3
				c0.3-0.7,0.8-1.2,1.4-1.5s1.3-0.6,2-0.6c0.5,0,0.9,0.1,1.4,0.2c0.4,0.2,0.8,0.4,1.2,0.7s0.6,0.8,0.8,1.3c0.2,0.5,0.3,1.2,0.3,1.9
				v0.6H19v-1.2h5.1c0-0.4-0.1-0.8-0.3-1.1s-0.4-0.6-0.7-0.8c-0.3-0.2-0.7-0.3-1.1-0.3c-0.5,0-0.9,0.1-1.2,0.3
				c-0.3,0.2-0.6,0.5-0.8,0.9c-0.2,0.4-0.3,0.7-0.3,1.2v1c0,0.6,0.1,1,0.3,1.4c0.2,0.4,0.5,0.7,0.8,0.9c0.4,0.2,0.8,0.3,1.3,0.3
				c0.3,0,0.6,0,0.8-0.1c0.3-0.1,0.5-0.2,0.7-0.4c0.2-0.2,0.3-0.4,0.4-0.7l1.5,0.3c-0.1,0.5-0.3,0.9-0.7,1.2
				c-0.3,0.3-0.7,0.6-1.2,0.8C23.2,66.5,22.7,66.5,22.1,66.5z"/>
			<path class="st0" d="M34.3,58v8.4h-6.8V58h1.6v7h3.6v-7H34.3z M35.9,65v4h-1.6v-4H35.9z"/>
			<path class="st0" d="M39.3,64.1L43,58h1.8v8.4h-1.6v-6.1l-3.7,6.1h-1.8V58h1.6V64.1z"/>
			<path class="st0" d="M49.4,66.6c-0.5,0-1-0.1-1.4-0.3c-0.4-0.2-0.8-0.5-1-0.9c-0.2-0.4-0.4-0.8-0.4-1.4c0-0.5,0.1-0.9,0.3-1.2
				c0.2-0.3,0.4-0.5,0.7-0.7c0.3-0.2,0.7-0.3,1-0.4s0.8-0.2,1.2-0.2c0.5-0.1,0.9-0.1,1.2-0.1c0.3,0,0.5-0.1,0.7-0.2
				c0.1-0.1,0.2-0.2,0.2-0.4v0c0-0.5-0.1-0.8-0.4-1.1c-0.3-0.3-0.7-0.4-1.2-0.4c-0.5,0-1,0.1-1.3,0.4c-0.3,0.2-0.5,0.5-0.7,0.8
				L46.8,60c0.2-0.5,0.4-0.9,0.8-1.2s0.8-0.5,1.2-0.7s0.9-0.2,1.4-0.2c0.3,0,0.7,0,1.1,0.1c0.4,0.1,0.7,0.2,1.1,0.4
				c0.3,0.2,0.6,0.5,0.8,0.9c0.2,0.4,0.3,0.9,0.3,1.5v5.6h-1.6v-1.1h-0.1c-0.1,0.2-0.3,0.4-0.5,0.6s-0.5,0.4-0.8,0.5
				C50.2,66.5,49.8,66.6,49.4,66.6z M49.7,65.3c0.5,0,0.8-0.1,1.2-0.3c0.3-0.2,0.6-0.4,0.7-0.7c0.2-0.3,0.3-0.6,0.3-0.9v-1.1
				c-0.1,0.1-0.2,0.1-0.3,0.2c-0.2,0-0.4,0.1-0.6,0.1c-0.2,0-0.4,0.1-0.6,0.1s-0.4,0.1-0.5,0.1c-0.3,0-0.6,0.1-0.9,0.2
				c-0.3,0.1-0.5,0.2-0.6,0.4c-0.2,0.2-0.2,0.4-0.2,0.7c0,0.4,0.1,0.7,0.4,0.9C48.9,65.1,49.2,65.3,49.7,65.3z"/>
			<path class="st0" d="M0,80.9l0-1.4h0.3c0.2,0,0.4,0,0.6-0.2s0.3-0.3,0.4-0.5c0.1-0.2,0.2-0.6,0.2-1c0.1-0.4,0.1-1,0.1-1.6
				l0.1-3.7h5.9v8.4H6v-7H3.3l-0.1,2.9c0,0.7-0.1,1.3-0.2,1.8c-0.1,0.5-0.3,0.9-0.5,1.3c-0.2,0.3-0.5,0.6-0.8,0.8
				c-0.3,0.2-0.7,0.3-1.2,0.3H0z"/>
			<path class="st0" d="M11.4,78.6l3.7-6.1h1.8v8.4h-1.6v-6.1l-3.7,6.1H9.8v-8.4h1.6V78.6z"/>
			<path class="st0" d="M22.6,81c-0.8,0-1.5-0.2-2.1-0.6c-0.6-0.4-1-0.9-1.3-1.5c-0.3-0.7-0.5-1.4-0.5-2.2c0-0.9,0.2-1.6,0.5-2.3
				c0.3-0.7,0.8-1.2,1.4-1.5c0.6-0.4,1.3-0.6,2.1-0.6c0.6,0,1.2,0.1,1.7,0.4c0.5,0.2,0.9,0.6,1.2,1s0.5,0.9,0.5,1.5h-1.6
				c-0.1-0.4-0.3-0.7-0.6-1s-0.7-0.4-1.2-0.4c-0.5,0-0.9,0.1-1.2,0.4c-0.3,0.2-0.6,0.6-0.8,1c-0.2,0.4-0.3,1-0.3,1.6
				c0,0.6,0.1,1.1,0.3,1.6c0.2,0.4,0.4,0.8,0.8,1s0.7,0.4,1.2,0.4c0.3,0,0.6-0.1,0.8-0.2c0.3-0.1,0.5-0.3,0.6-0.5s0.3-0.5,0.4-0.8
				h1.6c-0.1,0.5-0.2,1-0.5,1.5c-0.3,0.4-0.7,0.8-1.2,1C23.8,80.9,23.3,81,22.6,81z"/>
			<path class="st0" d="M27.2,73.9v-1.4h7.1v1.4h-2.7v7h-1.6v-7H27.2z"/>
		</g>
	</g>
</g>
</svg>
