<?xml version="1.0" encoding="utf-8"?>
<!-- Generator: Adobe Illustrator 25.4.1, SVG Export Plug-In . SVG Version: 6.00 Build 0)  -->
<svg version="1.1" id="Слой_1" xmlns="http://www.w3.org/2000/svg" xmlns:xlink="http://www.w3.org/1999/xlink" x="0px" y="0px"
	 viewBox="0 0 53.2 69" style="enable-background:new 0 0 53.2 69;" xml:space="preserve">
<style type="text/css">
	.st0{fill:#DF8844;}
	.st1{fill:#FFFFFF;}
</style>
<g>
	<rect x="0.1" class="st0" width="52.5" height="52.5"/>
	<path class="st1" d="M43.4,16.3c-1.6-2.9-4-5.1-7.1-6.6c-3.1-1.5-6.7-2.3-11-2.3H10.8v8.1h6.6v-3h7.6c3.2,0,5.8,0.5,8,1.6
		c2.1,1.1,3.8,2.7,4.8,4.8c1.1,2.1,1.6,4.7,1.6,7.7c0,3-0.5,5.6-1.6,7.7c-1.1,2.1-2.7,3.7-4.9,4.8c-2.2,1.1-5,1.7-8.3,1.7h-7.2v-4.3
		h-6.6v9.3h14.1c4.4,0,8.2-0.8,11.3-2.3c3.1-1.5,5.5-3.8,7.2-6.6c1.7-2.9,2.5-6.3,2.5-10.3C45.8,22.6,45,19.2,43.4,16.3z"/>
	<g>
		<g>
			<path class="st1" d="M5.6,18.4h3.8l4,9.8h0.2l4-9.8h3.8v14.6h-3v-9.5h-0.1l-3.8,9.4h-2l-3.8-9.4H8.6v9.5h-3V18.4z"/>
		</g>
	</g>
	<g>
		<path class="st0" d="M1.6,57.5v8.3H0v-8.3H1.6z M4.7,63.8l2.7-6.3h1.4l-3.5,8.3H4.1l-3.4-8.3H2L4.7,63.8z M7.8,65.8v-8.3h1.6v8.3
			H7.8z"/>
		<path class="st0" d="M14,66c-0.5,0-1-0.1-1.4-0.3c-0.4-0.2-0.8-0.5-1-0.9c-0.2-0.4-0.4-0.8-0.4-1.4c0-0.5,0.1-0.9,0.3-1.2
			c0.2-0.3,0.4-0.5,0.7-0.7c0.3-0.2,0.7-0.3,1-0.4s0.8-0.2,1.2-0.2c0.5-0.1,0.9-0.1,1.2-0.1c0.3,0,0.5-0.1,0.7-0.2
			c0.1-0.1,0.2-0.2,0.2-0.4v0c0-0.5-0.1-0.8-0.4-1.1c-0.3-0.3-0.7-0.4-1.2-0.4c-0.5,0-1,0.1-1.3,0.4s-0.5,0.5-0.6,0.8l-1.5-0.3
			c0.2-0.5,0.4-0.9,0.8-1.2c0.3-0.3,0.8-0.5,1.2-0.7c0.5-0.1,0.9-0.2,1.4-0.2c0.3,0,0.7,0,1.1,0.1c0.4,0.1,0.7,0.2,1.1,0.4
			s0.6,0.5,0.8,0.9c0.2,0.4,0.3,0.9,0.3,1.5v5.5h-1.6v-1.1h-0.1c-0.1,0.2-0.3,0.4-0.5,0.6c-0.2,0.2-0.5,0.4-0.8,0.5
			C14.8,66,14.4,66,14,66z M14.3,64.7c0.4,0,0.8-0.1,1.2-0.3c0.3-0.2,0.6-0.4,0.7-0.7c0.2-0.3,0.3-0.6,0.3-0.9v-1.1
			c-0.1,0.1-0.2,0.1-0.3,0.2C16,62,15.8,62,15.6,62s-0.4,0.1-0.6,0.1c-0.2,0-0.4,0-0.5,0.1c-0.3,0-0.6,0.1-0.9,0.2s-0.5,0.2-0.6,0.4
			c-0.2,0.2-0.2,0.4-0.2,0.7c0,0.4,0.1,0.7,0.4,0.9S13.9,64.7,14.3,64.7z"/>
		<path class="st0" d="M23.7,66c-0.8,0-1.5-0.2-2.1-0.6c-0.6-0.4-1-0.9-1.3-1.5c-0.3-0.6-0.5-1.4-0.5-2.2c0-0.8,0.2-1.6,0.5-2.2
			c0.3-0.6,0.8-1.2,1.3-1.5s1.3-0.5,2-0.5c0.6,0,1.2,0.1,1.7,0.3c0.5,0.2,0.9,0.6,1.2,1c0.3,0.4,0.5,0.9,0.5,1.5h-1.6
			c-0.1-0.4-0.3-0.7-0.6-1s-0.7-0.4-1.2-0.4c-0.5,0-0.8,0.1-1.2,0.4s-0.6,0.6-0.8,1c-0.2,0.4-0.3,0.9-0.3,1.5c0,0.6,0.1,1.1,0.3,1.6
			c0.2,0.4,0.4,0.8,0.8,1c0.3,0.2,0.7,0.4,1.2,0.4c0.3,0,0.6-0.1,0.8-0.2c0.3-0.1,0.5-0.3,0.6-0.5c0.2-0.2,0.3-0.5,0.4-0.8h1.6
			c-0.1,0.5-0.2,1-0.5,1.4c-0.3,0.4-0.7,0.8-1.2,1C25,65.9,24.4,66,23.7,66z"/>
		<path class="st0" d="M28.3,58.9v-1.4h7v1.4h-2.7v6.9H31v-6.9H28.3z"/>
		<path class="st0" d="M40.2,66c-0.8,0-1.5-0.2-2.1-0.5c-0.6-0.4-1-0.8-1.4-1.5c-0.3-0.6-0.5-1.4-0.5-2.3c0-0.9,0.2-1.6,0.5-2.3
			c0.3-0.7,0.8-1.2,1.3-1.5s1.3-0.5,2-0.5c0.5,0,0.9,0.1,1.4,0.2s0.8,0.4,1.2,0.7s0.6,0.8,0.8,1.3c0.2,0.5,0.3,1.2,0.3,1.9v0.6h-6.6
			V61h5c0-0.4-0.1-0.8-0.3-1.1s-0.4-0.6-0.7-0.8s-0.7-0.3-1.1-0.3c-0.5,0-0.9,0.1-1.2,0.3s-0.6,0.5-0.8,0.9
			c-0.2,0.4-0.3,0.7-0.3,1.2v0.9c0,0.6,0.1,1,0.3,1.4c0.2,0.4,0.5,0.7,0.8,0.9c0.4,0.2,0.8,0.3,1.2,0.3c0.3,0,0.6,0,0.8-0.1
			c0.3-0.1,0.5-0.2,0.7-0.4c0.2-0.2,0.3-0.4,0.4-0.7l1.5,0.3c-0.1,0.5-0.3,0.8-0.7,1.2c-0.3,0.3-0.7,0.6-1.2,0.8S40.8,66,40.2,66z"
			/>
		<path class="st0" d="M45.6,69V57.5h1.6v1.3h0.1c0.1-0.2,0.2-0.4,0.4-0.6c0.2-0.2,0.4-0.4,0.7-0.6c0.3-0.2,0.7-0.3,1.2-0.3
			c0.7,0,1.3,0.2,1.8,0.5c0.5,0.3,0.9,0.8,1.2,1.5s0.5,1.4,0.5,2.3c0,0.9-0.1,1.7-0.4,2.3c-0.3,0.6-0.7,1.1-1.2,1.5S50.4,66,49.7,66
			c-0.5,0-0.9-0.1-1.2-0.3c-0.3-0.2-0.6-0.4-0.8-0.6c-0.2-0.2-0.3-0.4-0.4-0.6h-0.1V69H45.6z M47.2,61.7c0,0.6,0.1,1.1,0.3,1.5
			s0.4,0.8,0.7,1c0.3,0.2,0.7,0.4,1.2,0.4c0.5,0,0.9-0.1,1.2-0.4c0.3-0.3,0.6-0.6,0.7-1.1s0.3-0.9,0.3-1.5c0-0.5-0.1-1-0.2-1.5
			c-0.2-0.4-0.4-0.8-0.7-1s-0.7-0.4-1.2-0.4c-0.5,0-0.9,0.1-1.2,0.4s-0.6,0.6-0.7,1C47.3,60.6,47.2,61.1,47.2,61.7z"/>
	</g>
</g>
</svg>
