<?xml version="1.0" encoding="utf-8"?>
<!-- Generator: Adobe Illustrator 25.4.1, SVG Export Plug-In . SVG Version: 6.00 Build 0)  -->
<svg version="1.1" id="Слой_1" xmlns="http://www.w3.org/2000/svg" xmlns:xlink="http://www.w3.org/1999/xlink" x="0px" y="0px"
	 viewBox="0 0 68 69.7" style="enable-background:new 0 0 68 69.7;" xml:space="preserve">
<style type="text/css">
	.st0{fill:none;stroke:#333333;stroke-width:3;stroke-miterlimit:10;}
	.st1{fill-rule:evenodd;clip-rule:evenodd;fill:#333333;}
</style>
<g>
	<polyline class="st0" points="1.5,67.4 1.5,2.4 66.5,2.4 66.5,67.4 1.5,67.4 	"/>
	<path class="st1" d="M43.4,58.5c-2.7,0-5.3-0.8-7.4-2.3c-1,0-2,0-2.9,0c-11.8,0-21.2-9.3-21.2-21c0-0.8,0-2,0-3.1
		c-1.4-2.1-2.3-4.6-2.3-7.3c0-7.2,5.9-13.1,13.2-13.1c2.7,0,5.3,0.8,7.3,2.2c1.1,0,2.3,0,3.1,0c11.8,0,21,9.4,21,21.1c0,0.9,0,2,0,3
		c1.4,2.1,2.3,4.6,2.3,7.3C56.5,52.6,50.6,58.5,43.4,58.5L43.4,58.5z M44.5,36.9c-1.1-2-3.2-3.2-5.9-4.1c-1.9-0.6-7.5-1.9-7.5-1.9
		c0,0-3.5-0.8-3.5-2.8c0-1.9,2.1-3,5.2-3c3.2,0,4.2,1.2,5.3,3.2c0.5,0.8,0.9,1.3,1.2,1.6c0.8,0.7,2.7,0.9,3.9-0.3
		c0.6-0.6,0.9-1.3,0.9-2c0-1.6-0.9-3.2-2.7-4.6c-1.8-1.4-4.6-2.3-8.3-2.3c-4.7,0-8.3,1.3-10.2,3.8c-0.9,1.2-1.4,2.6-1.4,4.2
		c0,3.3,2,5.5,4.9,6.8c1.5,0.6,3.3,1.2,5.5,1.6c3.3,0.7,4.9,1.1,6.1,2.2c0.5,0.5,0.8,1.1,0.8,2c0,1-0.5,2.1-1.5,2.8
		c-1.2,0.8-2.4,1.2-4.1,1.2c-1.8,0-4.4-0.4-6.2-4.3c-0.7-1.5-1.6-2.4-3.1-2.4c-1.7,0-3.1,1.2-3.1,2.8c0,1.2,0.5,2.5,1.3,3.8
		c1.4,2,4.2,4.6,10.9,4.6c5,0,8.8-1.6,10.8-4.3c1-1.4,1.5-2.9,1.5-4.6C45.3,39.1,45,37.9,44.5,36.9L44.5,36.9z"/>
</g>
</svg>
